<?xml version="1.0" encoding="UTF-8"?>
<svg width="700pt" height="700pt" version="1.1" viewBox="0 0 700 700" xmlns="http://www.w3.org/2000/svg" xmlns:xlink="http://www.w3.org/1999/xlink">
 <defs>
  <symbol id="h" overflow="visible">
   <path d="m39.078-2.3281c-2.0117 1.043-4.1094 1.8281-6.2969 2.3594s-4.4648 0.79688-6.8281 0.79688c-7.0859 0-12.699-1.9766-16.844-5.9375-4.1367-3.957-6.2031-9.3281-6.2031-16.109 0-6.7891 2.0664-12.164 6.2031-16.125 4.1445-3.9688 9.7578-5.9531 16.844-5.9531 2.3633 0 4.6406 0.26562 6.8281 0.79688s4.2852 1.3242 6.2969 2.375v8.7969c-2.0312-1.3828-4.0391-2.3984-6.0156-3.0469-1.9688-0.64453-4.0469-0.96875-6.2344-0.96875-3.9062 0-6.9844 1.2578-9.2344 3.7656-2.2422 2.5-3.3594 5.9531-3.3594 10.359 0 4.3867 1.1172 7.8359 3.3594 10.344 2.25 2.5 5.3281 3.75 9.2344 3.75 2.1875 0 4.2656-0.32031 6.2344-0.96875 1.9766-0.64453 3.9844-1.6602 6.0156-3.0469z"/>
  </symbol>
  <symbol id="g" overflow="visible">
   <path d="m16.031-40.953v9.0625h10.516v7.2812h-10.516v13.531c0 1.4805 0.28906 2.4805 0.875 3 0.59375 0.52344 1.7656 0.78125 3.5156 0.78125h5.2344v7.2969h-8.7344c-4.0312 0-6.8867-0.83594-8.5625-2.5156-1.6797-1.6875-2.5156-4.5391-2.5156-8.5625v-13.531h-5.0781v-7.2812h5.0781v-9.0625z"/>
  </symbol>
  <symbol id="f" overflow="visible">
   <path d="m26.594-27.234v-17.078h10.266v44.312h-10.266v-4.6094c-1.3984 1.875-2.9453 3.25-4.6406 4.125-1.6875 0.875-3.6406 1.3125-5.8594 1.3125-3.9297 0-7.1562-1.5625-9.6875-4.6875-2.5234-3.125-3.7812-7.1445-3.7812-12.062 0-4.9141 1.2578-8.9375 3.7812-12.062 2.5312-3.125 5.7578-4.6875 9.6875-4.6875 2.1953 0 4.1445 0.44531 5.8438 1.3281 1.707 0.88672 3.2578 2.2578 4.6562 4.1094zm-6.7188 20.656c2.1875 0 3.8516-0.79688 5-2.3906 1.1445-1.5938 1.7188-3.9102 1.7188-6.9531 0-3.0391-0.57422-5.3594-1.7188-6.9531-1.1484-1.5938-2.8125-2.3906-5-2.3906-2.168 0-3.8242 0.79688-4.9688 2.3906-1.1484 1.5938-1.7188 3.9141-1.7188 6.9531 0 3.043 0.57031 5.3594 1.7188 6.9531 1.1445 1.5938 2.8008 2.3906 4.9688 2.3906z"/>
  </symbol>
  <symbol id="e" overflow="visible">
   <path d="m21.875-6.5781c2.1758 0 3.8359-0.79688 4.9844-2.3906 1.1562-1.5938 1.7344-3.9102 1.7344-6.9531 0-3.0391-0.57812-5.3594-1.7344-6.9531-1.1484-1.5938-2.8086-2.3906-4.9844-2.3906-2.1875 0-3.8672 0.80469-5.0312 2.4062-1.168 1.6055-1.75 3.918-1.75 6.9375 0 3.0234 0.58203 5.3359 1.75 6.9375 1.1641 1.6055 2.8438 2.4062 5.0312 2.4062zm-6.7812-20.656c1.4062-1.8516 2.9609-3.2227 4.6719-4.1094 1.707-0.88281 3.6719-1.3281 5.8906-1.3281 3.9375 0 7.1641 1.5625 9.6875 4.6875 2.5195 3.125 3.7812 7.1484 3.7812 12.062 0 4.918-1.2617 8.9375-3.7812 12.062-2.5234 3.125-5.75 4.6875-9.6875 4.6875-2.2188 0-4.1836-0.44531-5.8906-1.3281-1.7109-0.88281-3.2656-2.2539-4.6719-4.1094v4.6094h-10.188v-44.312h10.188z"/>
  </symbol>
  <symbol id="d" overflow="visible">
   <path d="m31.156-7.75h-17.141l-2.7031 7.75h-11.031l15.75-42.516h13.078l15.75 42.516h-11.031zm-14.406-7.8906h11.641l-5.8125-16.906z"/>
  </symbol>
  <symbol id="c" overflow="visible">
   <path d="m4.9062-44.312h10.188v44.312h-10.188z"/>
  </symbol>
  <symbol id="b" overflow="visible">
   <path d="m25.891-44.312v6.6875h-5.6406c-1.4492 0-2.4609 0.26172-3.0312 0.78125-0.5625 0.52344-0.84375 1.4297-0.84375 2.7188v2.2344h8.7188v7.2812h-8.7188v24.609h-10.188v-24.609h-5.0781v-7.2812h5.0781v-2.2344c0-3.4688 0.96094-6.0312 2.8906-7.6875 1.9375-1.6641 4.9375-2.5 9-2.5z"/>
  </symbol>
  <symbol id="a" overflow="visible">
   <path d="m3.2812-42.516h35.734v6.625l-22.812 27.609h23.469v8.2812h-37.047v-6.6406l22.812-27.594h-22.156z"/>
  </symbol>
 </defs>
 <g>
  <path d="m141.61 350c0 6.4453-5.2227 11.668-11.668 11.668-6.4414 0-11.664-5.2227-11.664-11.668 0-6.4414 5.2227-11.664 11.664-11.664 6.4453 0 11.668 5.2227 11.668 11.664" fill-rule="evenodd"/>
  <path d="m175.39 291.64c3.6641 55.664 33.391 104.24 77.082 133.64l-18.703 32.41c-1.8516 3.2109-5.1094 5.3438-8.7852 5.7656-3.5898 0.40625-7.1602-0.86328-9.6797-3.4531-20.852-23.52-36.66-45.793-60.32-61.133-0.058594-0.046875-0.11328-0.082031-0.17188-0.11719-3.2344-2.0078-5.2383-5.4961-5.3555-9.3008-0.011719-0.070312-0.011719-0.13672-0.011719-0.21875-0.15234-3.0234-0.42188-6.0078-0.78125-8.9727-0.78125-6.3945-6.6055-10.957-12.996-10.172-6.3945 0.78125-10.945 6.6133-10.164 12.996 0.28125 2.3789 0.50391 4.7695 0.62891 7.1953 0.42188 11.586 6.5234 22.145 16.289 28.246 21.875 14.211 36.164 35.246 55.449 56.992 0.070312 0.082031 0.12891 0.15234 0.19922 0.22266 7.5742 8.1211 18.539 12.156 29.562 10.895 1.1445-0.12891 2.2773-0.3125 3.3867-0.55859 0.27734 1.0039 0.64062 2.0078 1.082 3.0234 4.4219 10.148 13.395 17.59 24.188 20.066 0.070313 0.023437 0.14844 0.046875 0.23047 0.058594 28.375 5.8906 53.691 7.8633 76.965 19.691 10.293 5.4492 22.484 5.4492 32.656 0.035156 23.242-11.832 48.605-13.684 77.082-19.52 0.10547-0.011719 0.19922-0.035156 0.29297-0.058594 10.812-2.4961 19.797-9.9727 24.219-20.16 0.44531-1.0352 0.85156-2.0859 1.1914-3.1484 1.0469 0.22266 2.0977 0.38672 3.1719 0.51172 11 1.25 21.934-2.7969 29.469-10.906 0.058594-0.058593 0.11719-0.11719 0.16406-0.17578 19.297-21.629 33.66-42.559 55.547-56.805 9.8672-6.1953 15.957-16.754 16.355-28.27 1.375-26.039 12.449-48.93 21.641-76.508 0.035157-0.09375 0.058594-0.1875 0.09375-0.28125 3.2305-10.617 1.25-22.145-5.3555-31.055-0.66406-0.91016-1.375-1.7734-2.1328-2.6055 0.71094-0.80469 1.3867-1.6328 2.0273-2.4961 6.582-8.8984 8.5547-20.391 5.2969-30.973-0.023438-0.082031-0.046875-0.15234-0.070313-0.23437-9.0859-27.523-20.031-50.422-21.43-76.512-0.42188-11.629-6.5234-22.188-16.285-28.289-21.875-14.211-36.168-35.246-55.453-56.992-0.070313-0.082031-0.12891-0.15234-0.19922-0.22266-7.5703-8.1211-18.539-12.156-29.562-10.895-1.1211 0.125-2.2305 0.3125-3.3242 0.54688-0.33984-1.0156-0.71094-2.0195-1.1445-3.0117-4.4219-10.148-13.395-17.59-24.184-20.066-0.070313-0.023437-0.15234-0.046875-0.23438-0.058593-28.375-5.8906-53.691-7.8633-76.965-19.691-10.289-5.4492-22.48-5.4492-32.656-0.035156-23.238 11.828-48.602 13.684-77.082 19.52-0.09375 0.011719-0.19531 0.035156-0.28906 0.058594-10.816 2.4961-19.801 9.9727-24.223 20.16-0.44141 1.0352-0.85156 2.0859-1.1875 3.1484-1.0508-0.22266-2.1016-0.38672-3.1758-0.51172-11-1.25-21.934 2.7969-29.469 10.906-0.058594 0.058594-0.11719 0.11719-0.16406 0.17578-19.297 21.629-33.656 42.559-55.543 56.805-9.8711 6.1953-15.961 16.754-16.359 28.27-1.375 26.039-12.445 48.93-21.641 76.508-0.023438 0.09375-0.058594 0.1875-0.09375 0.28125-3.2305 10.617-1.2461 22.145 5.3555 31.055 0.66406 0.91016 1.375 1.7734 2.1367 2.6016-0.71484 0.80859-1.3906 1.6367-2.0312 2.5-6.582 8.8984-8.5508 20.391-5.2969 30.973l3.3477 9.8594c2.1367 6.0781 8.7969 9.2852 14.875 7.1523 6.0664-2.125 9.2773-8.7852 7.1523-14.863-1.0391-2.9531-2.0664-5.9492-3.0703-9.0078-1.0586-3.5586-0.40625-7.3281 1.75-10.242 2.1836-2.9414 5.625-4.6797 9.2891-4.6797h0.035156c11.094-0.035156 24.172-0.058594 37.379-0.070313zm97.312 145.38c-6.582 11.422-13.078 22.738-18.598 32.352-0.011718 0.011719-0.011718 0.011719-0.023437 0.023438-1.832 3.1719-2.0391 7.0352-0.58203 10.395 1.4453 3.3242 4.3867 5.7773 7.9102 6.6172 30.602 6.3438 57.762 9.0039 82.867 21.828 0.070312 0.035157 0.14062 0.070313 0.21094 0.10547 3.3477 1.793 7.3594 1.793 10.723 0.011719 0.058594-0.035157 0.125-0.070313 0.18359-0.10547 25.133-12.812 52.316-15.367 83.102-21.668 3.5-0.88672 6.3945-3.3359 7.832-6.6602 1.4805-3.3945 1.2578-7.2812-0.59766-10.488l-18.652-32.305c-23.254 11.445-49.422 17.871-77.07 17.871-27.746 0-53.984-6.4609-77.305-17.977zm251.92-145.29c-3.7109 55.707-33.52 104.32-77.305 133.69 6.6055 11.398 13.137 22.668 18.691 32.234 0.011719 0.011719 0.011719 0.023438 0.023438 0.035156 1.832 3.1758 5.0625 5.2852 8.7031 5.6953 3.6055 0.41797 7.1875-0.89844 9.6836-3.5352 20.801-23.332 36.68-45.523 60.34-60.855 0.058594-0.042969 0.12891-0.078125 0.1875-0.11328 3.2305-2.0078 5.25-5.4961 5.3672-9.2891 0.011718-0.070312 0.011718-0.14062 0.011718-0.22266 1.4688-28.16 12.844-52.977 22.797-82.797 0.97656-3.4648 0.28906-7.2109-1.8555-10.113-2.207-2.9648-5.6836-4.7266-9.3828-4.7266zm-174.61-163.4c83.707 0 151.66 67.957 151.66 151.66 0 83.711-67.957 151.67-151.66 151.67-83.711 0-151.67-67.957-151.67-151.67 0-83.707 67.957-151.66 151.67-151.66zm174.61 140.02c13.148-0.011719 26.156-0.035156 37.207-0.070313h0.03125c3.6641 0 7.1055-1.7383 9.2891-4.6797 2.1562-2.9141 2.8125-6.6836 1.7852-10.16-9.8125-29.68-21.094-54.531-22.539-82.684 0-0.082031 0-0.15234-0.011719-0.21875-0.11719-3.8047-2.125-7.293-5.3555-9.3008-0.058594-0.035156-0.11719-0.070313-0.17578-0.11719-23.66-15.34-39.469-37.613-60.316-61.133-2.5195-2.5898-6.0898-3.8594-9.6836-3.4531-3.6758 0.42188-6.9297 2.5547-8.7852 5.7656l-18.656 32.316c43.762 29.41 73.547 78.023 77.211 133.73zm-272.05-133.7c-6.6172-11.422-13.16-22.727-18.738-32.32-0.011719-0.011719-0.011719-0.019532-0.023438-0.03125-1.832-3.1758-5.0625-5.2852-8.7031-5.6953-3.6055-0.41797-7.1836 0.89844-9.6836 3.5352-20.801 23.332-36.68 45.523-60.34 60.852-0.058594 0.046875-0.12891 0.082031-0.18359 0.11719-3.2344 2.0078-5.25 5.4961-5.3672 9.2891-0.011719 0.070312-0.011719 0.14062-0.011719 0.21875-1.4727 28.164-12.848 52.98-22.797 82.801-0.98047 3.4648-0.29297 7.2109 1.8555 10.113 2.2031 2.9648 5.6797 4.7266 9.3789 4.7266h37.438c3.6992-55.664 33.461-104.22 77.176-133.61zm174.6-11.738c6.5703-11.41 13.055-22.691 18.562-32.293 0.011719-0.011718 0.011719-0.011718 0.023438-0.023437 1.832-3.1719 2.043-7.0352 0.58203-10.395-1.4453-3.3242-4.3828-5.7773-7.9062-6.6172-30.602-6.3438-57.762-9.0039-82.871-21.828-0.070313-0.035156-0.14063-0.070313-0.21094-0.10547-3.3477-1.7969-7.3594-1.7969-10.719-0.011718-0.058594 0.035156-0.11719 0.070312-0.1875 0.10547-25.129 12.812-52.312 15.367-83.102 21.668-3.5 0.88672-6.3945 3.3359-7.8281 6.6602-1.4805 3.3945-1.2617 7.2812 0.59375 10.488l18.691 32.363c23.285-11.48 49.5-17.934 77.211-17.934 27.695 0 53.887 6.4414 77.16 17.922z" fill-rule="evenodd"/>
  <path d="m350 233.34c-25.762 0-46.664 20.902-46.664 46.66 0 25.762 20.902 46.664 46.664 46.664 25.758 0 46.664-20.902 46.664-46.664 0-25.758-20.906-46.66-46.664-46.66zm0 23.324c12.879 0 23.336 10.457 23.336 23.336 0 12.883-10.457 23.34-23.336 23.34-12.883 0-23.336-10.457-23.336-23.34 0-12.879 10.453-23.336 23.336-23.336z" fill-rule="evenodd"/>
  <path d="m433.99 217.03c13.176 17.555 21 39.344 21 62.965 0 57.938-47.059 105-105 105-57.938 0-105-47.062-105-105s47.062-105 105-105c23.621 0 45.449 7.8242 63 21 5.1328 3.875 12.457 2.8359 16.336-2.2969 3.875-5.1719 2.8359-12.492-2.3359-16.336-21.43-16.152-48.102-25.699-77-25.699-70.824 0-128.33 57.508-128.33 128.33 0 70.824 57.508 128.33 128.33 128.33 70.828 0 128.34-57.508 128.34-128.33 0-28.863-9.5508-55.535-25.668-77-3.8789-5.1328-11.199-6.1758-16.332-2.2969-5.1719 3.875-6.2109 11.164-2.3359 16.332z" fill-rule="evenodd"/>
  <path d="m349.91 209.96c0 6.4141-5.2031 11.617-11.621 11.617-6.418 0-11.621-5.2031-11.621-11.617 0-6.418 5.2031-11.621 11.621-11.621 6.418 0 11.621 5.2031 11.621 11.621" fill-rule="evenodd"/>
  <path d="m396.57 209.96c0 6.4141-5.1992 11.617-11.617 11.617s-11.621-5.2031-11.621-11.617c0-6.418 5.2031-11.621 11.621-11.621s11.617 5.2031 11.617 11.621" fill-rule="evenodd"/>
  <path d="m419.91 245.04c0 6.418-5.2031 11.621-11.621 11.621-6.418 0-11.621-5.2031-11.621-11.621s5.2031-11.621 11.621-11.621c6.418 0 11.621 5.2031 11.621 11.621" fill-rule="evenodd"/>
  <path d="m443.33 279.96c0 6.4141-5.1992 11.617-11.617 11.617-6.418 0-11.621-5.2031-11.621-11.617 0-6.418 5.2031-11.621 11.621-11.621 6.418 0 11.617 5.2031 11.617 11.621" fill-rule="evenodd"/>
  <path d="m419.82 315.04c0 6.418-5.2031 11.621-11.617 11.621-6.418 0-11.621-5.2031-11.621-11.621s5.2031-11.621 11.621-11.621c6.4141 0 11.617 5.2031 11.617 11.621" fill-rule="evenodd"/>
  <path d="m408.2 350.04c0 6.418-5.2031 11.621-11.621 11.621s-11.621-5.2031-11.621-11.621 5.2031-11.621 11.621-11.621 11.621 5.2031 11.621 11.621" fill-rule="evenodd"/>
  <path d="m373.24 349.96c0 6.4141-5.2031 11.617-11.621 11.617-6.418 0-11.617-5.2031-11.617-11.617 0-6.418 5.1992-11.621 11.617-11.621 6.418 0 11.621 5.2031 11.621 11.621" fill-rule="evenodd"/>
  <path d="m338.24 361.58c0 6.418-5.2031 11.621-11.621 11.621-6.418 0-11.617-5.2031-11.617-11.621s5.1992-11.621 11.617-11.621c6.418 0 11.621 5.2031 11.621 11.621" fill-rule="evenodd"/>
  <path d="m314.91 338.42c0 6.418-5.2031 11.621-11.621 11.621-6.418 0-11.621-5.2031-11.621-11.621s5.2031-11.617 11.621-11.617c6.418 0 11.621 5.1992 11.621 11.617" fill-rule="evenodd"/>
  <path d="m291.57 315.17c0 6.418-5.1992 11.621-11.617 11.621s-11.621-5.2031-11.621-11.621c0-6.4141 5.2031-11.617 11.621-11.617s11.617 5.2031 11.617 11.617" fill-rule="evenodd"/>
  <path d="m279.91 280.04c0 6.418-5.2031 11.621-11.621 11.621-6.418 0-11.621-5.2031-11.621-11.621s5.2031-11.621 11.621-11.621c6.418 0 11.621 5.2031 11.621 11.621" fill-rule="evenodd"/>
  <path d="m303.16 245.04c0 6.418-5.2031 11.621-11.621 11.621-6.418 0-11.621-5.2031-11.621-11.621s5.2031-11.621 11.621-11.621c6.418 0 11.621 5.2031 11.621 11.621" fill-rule="evenodd"/>
  <path d="m315 210.04c0 6.418-5.2031 11.621-11.621 11.621s-11.617-5.2031-11.617-11.621 5.1992-11.621 11.617-11.621 11.621 5.2031 11.621 11.621" fill-rule="evenodd"/>
  <use x="70" y="735" xlink:href="#h"/>
  <use x="220.503906" y="735" xlink:href="#g"/>
  <use x="287.953125" y="735" xlink:href="#f"/>
  <use x="350.015625" y="735" xlink:href="#e"/>
  <use x="450.105469" y="735" xlink:href="#d"/>
  <use x="495.253906" y="735" xlink:href="#c"/>
  <use x="515.246094" y="735" xlink:href="#b"/>
  <use x="641.828125" y="735" xlink:href="#a"/>
 </g>
</svg>
